<mxfile host="Electron" modified="2022-03-22T04:09:50.303Z" agent="5.0 (Windows NT 10.0; Win64; x64) AppleWebKit/537.36 (KHTML, like Gecko) draw.io/16.5.1 Chrome/96.0.4664.110 Electron/16.0.7 Safari/537.36" etag="gW4eHCIQP-WC9qOEtd79" compressed="false" version="16.5.1" type="device">
  <diagram id="is69iQopaGMd0QR7psZ8" name="Page-1">
    <mxGraphModel dx="1102" dy="1042" grid="1" gridSize="10" guides="1" tooltips="1" connect="1" arrows="1" fold="1" page="1" pageScale="1" pageWidth="1100" pageHeight="850" background="none" math="0" shadow="0">
      <root>
        <mxCell id="0" />
        <mxCell id="1" parent="0" />
        <mxCell id="c7QWI__lu-sEi3-24Plo-66" value="Initial&lt;br&gt;Positions&lt;br&gt;S&lt;sub&gt;0&lt;/sub&gt;" style="ellipse;whiteSpace=wrap;html=1;aspect=fixed;rotation=0;" parent="1" vertex="1">
          <mxGeometry y="200" width="80" height="80" as="geometry" />
        </mxCell>
      </root>
    </mxGraphModel>
  </diagram>
</mxfile>
